<?xml version="1.0" standalone="no"?>
<!DOCTYPE svg PUBLIC "-//W3C//DTD SVG 1.1//EN" "http://www.w3.org/Graphics/SVG/1.1/DTD/svg11.dtd" >
<!--
2013-9-30: Created.
-->
<svg>
<metadata>
Created by iconfont
</metadata>
<defs>

<font id="iconfont" horiz-adv-x="1024" >
  <font-face
    font-family="iconfont"
    font-weight="500"
    font-stretch="normal"
    units-per-em="1024"
    ascent="896"
    descent="-128"
  />
    <missing-glyph />
    
    <glyph glyph-name="kehuguanli" unicode="&#58909;" d="M1013.480727 51.642182 1013.480727 51.642182c0-17.128727-12.916364-29.975273-30.091636-29.975273L747.240727 21.666909c17.152 4.328727 30.021818 21.387636 30.021818 38.562909l0 0 0 0c0 0 0 141.381818-103.005091 197.166545-43.054545 21.364364-47.313455 17.128727-68.701091 21.364364l0 60.066909c0 0-25.809455 17.105455-30.138182 77.125818-17.198545-4.258909-21.434182 17.221818-21.434182 34.257455 0 12.916364-8.610909 55.808 8.564364 51.502545-4.352 29.998545-8.564364 55.691636-4.352 68.584727 4.352 47.150545 51.549091 98.56 124.578909 102.888727 85.899636-4.328727 115.968-55.738182 120.273455-102.888727 0-12.893091 0-38.586182-4.305455-68.584727 17.198545 4.305455 8.564364-38.586182 8.564364-51.502545 0-12.753455-4.282182-38.516364-21.504-29.975273-8.564364-59.997091-30.021818-77.125818-30.021818-77.125818l0-60.020364c0 0 17.128727-8.564364 81.547636-34.327273 64.465455-25.669818 43.031273-8.517818 98.816-34.280727C1013.480727 167.400727 1013.480727 51.642182 1013.480727 51.642182L1013.480727 51.642182 1013.480727 51.642182zM541.090909 261.701818c73.029818-30.021818 47.243636-8.634182 107.380364-38.586182 94.487273-47.150545 94.487273-171.473455 94.487273-171.473455l0 0 0 0c0-17.128727-17.198545-34.304-34.397091-34.304L34.350545 17.338182C17.175273 17.338182 0 34.490182 0 51.642182l0 0 0 0c0 0 0 124.322909 94.487273 171.473455 60.136727 29.952 34.373818 4.282182 107.380364 34.280727 73.006545 29.998545 90.181818 38.562909 90.181818 38.562909l0 68.608c0 0-25.786182 21.364364-34.373818 85.643636-17.175273-4.235636-21.457455 21.527273-21.457455 34.373818-4.328727 21.434182-12.893091 68.584727 4.282182 64.279273-4.282182 29.998545-4.282182 59.973818-4.282182 72.820364 4.282182 55.784727 55.831273 111.476364 133.143273 111.476364 94.440727 0 128.791273-55.691636 137.402182-111.476364 0-17.082182 0-42.821818-4.282182-72.820364 21.504 4.328727 12.869818-42.821818 8.587636-60.043636 0-17.082182-8.587636-38.609455-21.480727-34.280727-8.610909-64.302545-34.350545-85.690182-34.350545-85.690182l0-68.561455C450.909091 300.288 468.084364 291.653818 541.090909 261.701818L541.090909 261.701818zM541.090909 261.701818"  horiz-adv-x="1024" />

    
    <glyph glyph-name="yanse" unicode="&#59215;" d="M764.31872 384c-36.7616 0-68.94848 32.25088-68.94848 68.94592 0 36.7616 32.18688 68.94336 68.94848 68.94336 36.77184 0 68.94592-32.18176 68.94592-68.94336C833.2672 416.25088 801.088 384 764.31872 384zM626.42944 567.88224c-36.77184 0-68.94848 32.18688-68.94848 68.94848s32.17664 68.94592 68.94848 68.94592c36.7616 0 68.9408-32.18688 68.9408-68.94592C695.37024 600.06912 663.19104 567.88224 626.42944 567.88224zM396.6208 567.88224c-36.83072 0-68.94592 32.18688-68.94592 68.94848s32.1152 68.94592 68.94592 68.94592c36.7616 0 68.94848-32.18688 68.94848-68.94592C465.56928 600.06912 433.3824 567.88224 396.6208 567.88224zM258.72384 384c-36.82304 0-68.9408 32.25088-68.9408 68.94592 0 36.7616 32.1152 68.94336 68.9408 68.94336 36.77184 0 68.94592-32.18176 68.94592-68.94336C327.67232 416.25088 295.49824 384 258.72384 384zM511.49056 797.6832c-229.80352 0-413.69088-183.87712-413.69088-413.68576s183.88736-413.6832 413.69088-413.6832c36.83072 0 68.94592 32.25088 68.94592 68.94848 0 18.44992-4.57472 32.25088-18.31168 45.98016-9.30048 13.80608-18.44992 27.61216-18.44992 45.92384 0 36.83072 32.18688 68.94592 68.94848 68.94592l82.74432 0c128.74496 0 229.8112 101.13536 229.8112 229.87008C925.17888 632.25088 741.36064 797.6832 511.49056 797.6832z"  horiz-adv-x="1024" />

    
    <glyph glyph-name="huopinguanli" unicode="&#58901;" d="M755.49568 136.7936c-65.20448 0-118.03136-52.50688-118.03136-117.28128 0-64.82176 52.82688-117.28 118.03136-117.28 65.20576 0 118.03136 52.48256 118.03136 117.28C873.52704 84.28928 820.6784 136.7936 755.49568 136.7936L755.49568 136.7936zM755.54304-3.94496c-13.09184 0-23.67616 10.54336-23.67616 23.54816s10.60736 23.54688 23.67616 23.54688c13.09184 0 23.69664-10.54208 23.69664-23.54688S768.6336-3.94496 755.54304-3.94496L755.54304-3.94496zM724.09088 178.20416 584.19968 595.85792l-0.02176 0-8.76672 28.26624L273.312 673.984c-15.392 2.59968-26.64192 0.75904-29.29024-14.45632-2.6688-15.21664 0.76032-22.37568 16.15232-25.04448l282.72512-52.25344 140.02816-417.8368C698.29888 172.5184 706.37312 175.0272 724.09088 178.20416L724.09088 178.20416zM1203.53536 864.23296 944.20992 793.81888l47.168-164.23936-47.168-23.45472L897.09184 770.36416l-282.88896-93.84832 165.01376-492.76544 20.64-8.28544c28.55296-7.2512 54.23104-22.55872 74.20288-44.22016l9.088-9.85216 508.96384 156.2304L1203.53536 864.23296 1203.53536 864.23296zM1348.60416 204.65408 917.82144 66.2848c6.0288-17.31072 9.34016-21.40928 9.34016-40.7424 1.77408 0.2304 3.52128 0.61952 5.26976 1.15072l433.98272 139.38048c14.816 4.85632 18.97984 15.0528 14.05568 29.69216C1375.54432 210.42944 1363.4432 209.50912 1348.60416 204.65408L1348.60416 204.65408zM1164.69632 439.05152c0 2.55744-0.97664 5.11488-2.92864 7.06944-1.95456 1.95456-4.5056 2.92864-7.05664 2.92864l-15.26144 0c-6.3232 0-13.01504 4.9344-14.89664 10.9696l-7.91552 19.2256c-2.97344 5.5616-1.74848 13.7664 2.69568 18.23616l10.83008 10.816c1.80736 1.80608 2.92992 4.3072 2.92992 7.07072 0 2.76096-1.1072 5.2608-2.92992 7.07456l-18.3808 18.35136c-1.80736 1.80992-4.29824 2.92352-7.05536 2.92352-2.75456 0-5.2608-1.12256-7.06816-2.92352l-10.83008-10.83136c-4.44544-4.45952-12.67968-5.6832-18.25024-2.69568l-19.21024 7.90784c-6.00704 1.86624-10.9632 8.57088-10.9632 14.89024l0 15.2832c0 2.55104-0.97408 5.10976-2.92864 7.06432-1.95328 1.952-4.50432 2.92864-7.05408 2.92864l-25.96096 0c-2.56512 0-5.11616-0.97664-7.06944-2.92864-1.95328-1.95456-2.92864-4.51328-2.92864-7.06432l0-15.2832c0-6.31936-4.91264-13.024-10.94784-14.89024l-19.22688-7.90784c-5.58208-2.98752-13.77408-1.77792-18.21952 2.69568l-10.87488 10.82368c-1.80608 1.80864-4.31232 2.91584-7.06688 2.91584-2.75584 0-5.24928-1.12128-7.05664-2.92096l-18.336-18.33728c-1.80736-1.80864-2.91456-4.3008-2.92992-7.06304 0-2.75328 1.12256-5.2544 2.92992-7.06304l10.81472-10.83648c4.47488-4.47488 5.69984-12.67456 2.69696-18.23488l-7.91552-19.24096c-1.86624-6.0352-8.55808-10.96832-14.88256-10.96832l-15.2768 0.01408c-2.5664 0-5.11616-0.97792-7.06816-2.92992-1.952-1.95456-2.92992-4.51072-2.92992-7.06944l0-25.95328c0-2.55744 0.97664-5.11616 2.92992-7.06816 1.952-1.94688 4.50304-2.92096 7.06816-2.92096l15.2768 0c6.32448-0.01536 13.00096-4.94976 14.8672-10.96832l7.9296-19.22688c2.97344-5.57568 1.76384-13.80224-2.69696-18.24896l-10.84416-10.816c-1.80736-1.80608-2.92992-4.3072-2.92992-7.07584 0-2.75456 1.12128-5.26208 2.92992-7.06816l18.3808-18.35264c1.80608-1.80736 4.29952-2.92224 7.05536-2.92224 2.75328 0 5.2608 1.11488 7.06816 2.92224l10.84416 10.8224c4.44672 4.45312 12.63872 5.67808 18.19264 2.65984l19.26912-7.90656c6.0352-1.87392 10.94784-8.5632 10.94784-14.89024l0-15.22688c0-2.55744 0.97664-5.11616 2.92864-7.06816 1.95328-1.94688 4.5056-2.92224 7.06944-2.92224l25.94688 0c2.56512 0 5.11488 0.97664 7.06816 2.92224 1.95456 1.952 2.92864 4.51072 2.92864 7.06816l0 15.22688c0 6.32576 4.95616 13.01632 10.9632 14.89024l19.24096 7.90656c5.568 3.01696 13.78816 1.792 18.26176-2.65984l10.77376-10.816c1.80736-1.81376 4.29952-2.94272 7.06816-2.94272 2.75456-0.01024 5.2608 1.1072 7.06816 2.92096l18.3808 18.368c1.82272 1.81376 2.92992 4.3136 2.92992 7.07584 0 2.76096-1.12256 5.26208-2.92992 7.06816l-10.8288 10.816c-4.44672 4.44672-5.67168 12.672-2.69568 18.24896l7.91424 19.22688c1.8816 6.01856 8.6016 10.95424 14.89664 10.95424l15.26144 0c2.55104 0 5.1008 0.97536 7.05664 2.92864 1.952 1.95328 2.92864 4.51072 2.92864 7.07072L1164.69376 439.05152 1164.69632 439.05152 1164.69632 439.05152 1164.69632 439.05152zM1072.88064 426.09152c0-31.70944-25.69728-57.39264-57.40032-57.39264-31.7184 0-57.41568 25.68192-57.41568 57.39264 0 31.70432 25.69728 57.40288 57.41568 57.40288C1047.18208 483.49312 1072.88064 457.79456 1072.88064 426.09152L1072.88064 426.09152 1072.88064 426.09152z"  horiz-adv-x="1639" />

    
    <glyph glyph-name="sales-order" unicode="&#58943;" d="M824.439 1.518h-524.769v54.199h419.849c28.914 0 52.518 24.325 52.518 54.193v541.995h52.4v-650.388M271.241 164.111c-14.455 0-26.253 12.161-26.253 27.1 0 14.927 11.799 27.1 26.253 27.1h369.52c14.444 0 26.253-12.173 26.253-27.1 0-14.937-11.809-27.1-26.253-27.1h-369.52M271.241 380.911h369.52c14.444 0 26.253-12.173 26.253-27.1 0-14.937-11.809-27.1-26.253-27.1h-369.52c-14.455 0-26.253 12.161-26.253 27.1 0 14.927 11.799 27.1 26.253 27.1zM271.241 543.505h369.52c14.444 0 26.253-12.173 26.253-27.1 0-14.938-11.809-27.1-26.253-27.1h-369.52c-14.455 0-26.253 12.161-26.253 27.1 0 14.927 11.799 27.1 26.253 27.1zM428.654 706.099h212.107c14.444 0 26.253-12.173 26.253-27.1 0-14.932-11.809-27.094-26.253-27.094h-212.107c-14.443 0-26.24 12.161-26.24 27.094 0 14.927 11.797 27.1 26.24 27.1zM824.439 706.099h-52.401v54.199c0 29.865-23.605 54.2-52.518 54.2h-524.753c-29.029 0-52.519-24.335-52.519-54.2v-650.388c0-29.869 23.49-54.193 52.519-54.193h52.387v-54.199c0-29.875 23.607-54.212 52.518-54.212h524.768c29.017 0 52.506 24.337 52.506 54.212v650.388c0 29.857-23.489 54.193-52.506 54.193z"  horiz-adv-x="1024" />

    
    <glyph glyph-name="jianchaliucheng" unicode="&#58973;" d="M320.037 575.963h209.579c19.285 0 34.923 15.637 34.923 34.927v69.853c0 19.294-15.637 34.929-34.923 34.929h-2.117c1.344 5.253 2.116 11.285 2.116 17.497 0 48.198-46.914 87.294-104.79 87.294-57.874 0-104.787-39.095-104.787-87.326 0-5.981 0.738-11.818 2.113-17.465h-2.112c-19.293 0-34.925-15.635-34.925-34.929v-69.853c-0.001-19.289 15.632-34.927 34.924-34.927zM389.899 750.602h69.853v-69.858h-69.853v69.858zM739.184 436.244c11.857 0 23.463-0.977 34.933-2.413v177.058c0 38.578-31.279 69.853-69.858 69.853h-104.786v-87.317c0-28.941-13.033-52.398-29.111-52.398h-291.072c-16.078 0-29.105 23.456-29.105 52.398v87.317h-104.791c-38.578 0-69.853-31.275-69.853-69.853v-558.862c0-38.583 31.275-69.858 69.853-69.858h375.847c-38.396 47.855-61.488 108.517-61.488 174.645 0 154.32 125.106 279.43 279.431 279.43zM739.184 366.087c-115.581 0-209.278-93.695-209.278-209.274 0-115.581 93.696-209.277 209.278-209.277s209.277 93.696 209.277 209.277c0 115.579-93.697 209.274-209.277 209.274zM867.293 173.332l-133.959-111.634c-4.49-3.738-9.914-5.958-15.586-7.429-3.442-1.15-6.972-1.819-10.561-1.714-9.918-0.143-19.87 2.841-27.438 9.143-5.375 4.48-8.115 10.071-9.581 15.834l-27.362 27.371c-12.016 12.007-12.016 31.489 0 43.504 12.016 12.011 31.49 12.011 43.507 0l19.954-19.959 107.441 89.537c14.796 12.329 38.787 12.329 53.585 0 14.795-12.33 14.795-32.323 0-44.652z"  horiz-adv-x="1024" />

    
    <glyph glyph-name="tuihuodanguanli" unicode="&#58950;" d="M896 608L672 832H192c-38.4 0-64-25.6-64-64v-768c0-38.4 25.6-64 64-64h640c38.4 0 64 25.6 64 64V608z m-275.2-486.4l-44.8 38.4v6.4c38.4 57.6 32 134.4-12.8 185.6-25.6 19.2-57.6 32-96 38.4l19.2-19.2c12.8-12.8 12.8-32 0-44.8-12.8-6.4-32-6.4-44.8 6.4L364.8 409.6c-6.4 6.4-12.8 12.8 6.4 32L441.6 512c12.8 12.8 32 12.8 44.8 0 6.4-6.4 6.4-12.8 6.4-19.2 0-6.4 0-12.8-6.4-19.2l-25.6-25.6h6.4c51.2 0 102.4-19.2 140.8-57.6 70.4-70.4 76.8-185.6 12.8-268.8z m51.2 486.4V761.6l153.6-153.6h-153.6z"  horiz-adv-x="1024" />

    
    <glyph glyph-name="fukuandan" unicode="&#59024;" d="M205.7 131.4c0 11.3 20.5 23 45.9 23h166.3c-13.8 6.7-33.7 27.5-34.6 42.1-1.6 25.1 17.1 42 22.3 48.1l43.1 38.7H251.6c-25.3 0-45.9 9.2-45.9 20.6 0 11.4 20.5 23.1 45.9 23.1h244.1l26.1 24.8 124.5 108.7c14.6 11.9 39.4 19.1 59.5 19.1 20.3 0 45.2-7.3 59.9-19.4l24.5-22v239c0 51.6-41.3 93.5-92.3 93.5h-163c-7.9 28-33.3 48.5-63.4 48.5h-89c-30.1 0-55.5-20.5-63.4-48.4h-163c-50.9 0-92.3-41.9-92.3-93.5v-619.6c0-51.6 41.4-93.5 92.3-93.5l345.4 0.1V110.8h-250c-25.2 0-45.8 9.2-45.8 20.6z m192.8 639.3c7.7 6.7 17.7 10.8 28.6 10.8 10.9 0 20.9-4.1 28.6-10.9 9.2-8.1 15.1-20.1 15.1-33.4 0-24.4-19.6-44.2-43.6-44.2-24.1 0-43.7 19.9-43.7 44.2 0 13.5 5.8 25.4 15 33.5zM251.6 497H585c25.4 0 45.9-9.2 45.9-20.6 0-11.4-20.5-23.1-45.9-23.1H251.6c-25.3 0-45.9 11.7-45.9 23.1 0 11.4 20.6 20.6 45.9 20.6zM953.1 235.8l-203.7 183c-12.4 10.3-28.2 16.4-45.4 16.4-17 0-32.7-6.1-45.1-16.2l-105.4-92-45.8-43.6-52.5-47c-4.4-5.2-7.2-12-7.2-19.5 0-13.7 9-25 21.2-28.6 0 0 2.9-1.2 7.2-1.2h60v-32.7l0.3-13.1-0.3-30.5v-114.3c0-27.4 20.1-47.7 46.8-47.7h241.5c26.7 0 46.8 20.3 46.8 47.7V187.1h58.9c0.2 0 0.4-0.1 0.6-0.1 0.2 0 0.4 0.1 0.6 0.1h0.7v0.1c15.4 0.7 27.7 13.7 27.7 29.6 0 7.3-2.6 13.9-6.9 19zM763.7 115.9c9.9 0 16.9-5.6 16.9-19.9 0-11-4.7-18.3-14.7-18.3h-40.2v-28.6c0-13.7-9.3-23.8-21.7-23.8-12.4 0-21.7 10.1-21.7 23.8v28.6h-39c-9.9 0-15.8 9.1-15.8 20.1 0 11 5.9 18.1 15.8 18.1h39v23.8h-39c-9.9 0-15.8 8.5-15.8 19.4 0 11 5.9 18.7 15.8 18.7h37.8l-39.5 43.6c-7.1 7.8-7.1 20.5 0 28.3 7.1 7.8 18.6 7.8 25.6 0l36.5-40.3 36.7 40.4c7.1 7.8 18.6 7.8 25.6 0 7.1-7.8 7.1-20.5 0-28.3l-39.6-43.7h38.3c9.9 0 15.8-7.7 15.8-18.7s-5.9-19.4-15.8-19.4h-39v-23.8h38z"  horiz-adv-x="1024" />

    
    <glyph glyph-name="xiaoshouchucangdan" unicode="&#58898;" d="M102.4 896h819.2a68.266667 68.266667 0 0 0 68.266667-68.266667v-887.466666a68.266667 68.266667 0 0 0-68.266667-68.266667H102.4a68.266667 68.266667 0 0 0-68.266667 68.266667V827.733333a68.266667 68.266667 0 0 0 68.266667 68.266667z m399.428267-218.385067a25.6 25.6 0 0 1-6.109867-4.5056L314.709333 492.066133a25.6 25.6 0 0 1 36.181334-36.181333l147.933866 147.899733v-330.717866a25.6 25.6 0 1 1 51.2 0V603.818667l147.933867-147.933867a25.6 25.6 0 1 1 36.181333 36.181333L553.130667 673.109333a25.6 25.6 0 0 1-6.109867 4.5056 25.6 25.6 0 0 1-45.192533 0zM290.133333 59.733333h477.866667a25.6 25.6 0 1 1 0 51.2h-477.866667a25.6 25.6 0 1 1 0-51.2z"  horiz-adv-x="1024" />

    
    <glyph glyph-name="tuihuodan" unicode="&#58899;" d="M330.190452 350.967742H644.129032a82.580645 82.580645 0 1 0 0-165.16129H280.774194V136.258065h363.354838a132.129032 132.129032 0 1 1 0 264.258064h-263.927742l46.575484 46.542452a24.774194 24.774194 0 0 1-35.014193 35.014193l-93.481291-93.415226a24.774194 24.774194 0 1 1 31.909162-37.689806zM218.871742 796.903226C233.538065 739.922581 285.266581 697.806452 346.83871 697.806452h330.32258a132.195097 132.195097 0 0 1 127.966968 99.096774H908.387097a66.064516 66.064516 0 0 0 66.064516-66.064516v-792.774194a66.064516 66.064516 0 0 0-66.064516-66.064516H115.612903a66.064516 66.064516 0 0 0-66.064516 66.064516V730.83871a66.064516 66.064516 0 0 0 66.064516 66.064516h103.258839zM346.83871 896h330.32258a66.064516 66.064516 0 1 0 0-132.129032H346.83871a66.064516 66.064516 0 1 0 0 132.129032z"  horiz-adv-x="1024" />

    
    <glyph glyph-name="shoukuandan" unicode="&#58951;" d="M726.656 704v-107.008H296.064V704H128.256L128-64l767.552 0.256L896 704H726.656z m34.56-490.816l-203.52-177.792h-0.32c-12.352-9.984-28.16-16-45.376-16a71.68 71.68 0 0 0-45.12 15.744h-0.448L267.904 208.448a36.992 36.992 0 0 0-3.776 3.328l-0.96 0.896 0.064 0.128A28.544 28.544 0 0 0 256 231.872c0 15.424 10.304 28.032 25.408 28.8v0.128h61.504V444.416c0 26.688 21.632 48.32 48.32 48.32h241.472c26.688 0 48.32-21.632 48.32-48.32V260.8l56.256 0.064 1.664 0.064a29.056 29.056 0 0 0 22.272-47.744zM574.784 289.856a19.328 19.328 0 0 1 0 38.656h-38.656v1.92l42.368 42.368a19.456 19.456 0 1 1-27.456 27.52l-39.36-39.36-39.168 39.232a19.456 19.456 0 1 1-27.52-27.52l42.88-42.88v-1.344h-38.656a19.328 19.328 0 1 1 0-38.656h38.656V270.4h-38.656a19.264 19.264 0 1 1 0-38.592h38.656v-24.192a24.128 24.128 0 0 1 48.256 0v24.256h38.656a19.328 19.328 0 0 1 0 38.592h-38.656v19.392h38.656zM659.2 764.224h-59.264v1.088a52.416 52.416 0 0 1-16.832 38.272 57.792 57.792 0 0 1-40.32 16.128H481.28a57.472 57.472 0 0 1-40.192-16.064 52.096 52.096 0 0 1-17.024-38.336v-1.152l-59.264 0.064v-111.872h294.4V764.224z m-109.888-26.816v-0.064c0-9.6-4.16-18.304-11.008-24.384a35.52 35.52 0 0 0-25.344-10.368h-1.472a36.032 36.032 0 0 0-25.344 10.304 33.472 33.472 0 0 0-10.304 24.128v1.6c0 9.344 3.968 17.856 10.304 24a37.376 37.376 0 0 0 25.216 9.664h1.216c9.92 0 18.624-3.328 25.792-9.728a32.512 32.512 0 0 0 10.944-24.128v-1.024z"  horiz-adv-x="1024" />

    
    <glyph glyph-name="huiyuanguanli" unicode="&#59001;" d="M750.266182 384h17.361454C883.525818 384 977.454545 289.978182 977.454545 174.545455v-163.002182c0-25.646545-20.852364-46.452364-46.266181-46.452364h-110.498909c50.269091 114.362182 36.398545 263.261091-47.941819 388.328727a470.714182 470.714182 0 0 1-22.481454 30.580364zM279.133091 604.485818c0-109.614545 72.471273-198.423273 161.838545-198.423273s161.838545 88.808727 161.838546 198.423273V674.117818C602.810182 742.586182 530.385455 802.909091 440.971636 802.909091c-89.367273 0-161.838545-63.767273-161.838545-132.282182v-66.141091zM462.848 361.937455h130.373818A198.376727 198.376727 0 0 0 791.272727 163.514182V58.181818A93.090909 93.090909 0 0 0 698.181818-34.909091H408.482909a268.334545 268.334545 0 0 1 117.341091 222.952727 269.498182 269.498182 0 0 1-62.976 173.893819zM409.041455 213.131636h-14.615273a46.08 46.08 0 0 0 46.405818-46.126545v-6.981818c0-25.088-20.759273-46.08-46.405818-46.08h14.615273c-25.832727 0-31.697455-14.801455-13.591273-33.047273l-10.333091 10.379636a46.778182 46.778182 0 0 0 0-66.001454l-4.096-4.096a46.266182 46.266182 0 0 0-65.582546-0.046546l10.286546-10.379636c-18.245818 18.385455-32.768 12.101818-32.768-13.684364v14.708364c0-26.018909-21.038545-46.685091-47.010909-46.685091h-4.561455c-26.065455 0-47.010909 20.898909-47.010909 46.685091v-14.708364c0 26.065455-14.661818 31.930182-32.768 13.684364l10.333091 10.379636a46.033455 46.033455 0 0 0-65.629091 0l-4.049454 4.142546a47.010909 47.010909 0 0 0 0 66.001454l-10.333091-10.379636c18.245818 18.385455 12.008727 33.047273-13.591273 33.047273h14.568727a46.08 46.08 0 0 0-46.359272 46.08v6.981818c0 25.088 20.759273 46.08 46.359272 46.08h-14.568727c25.832727 0 31.650909 14.801455 13.591273 33.047273l10.286545-10.379637a46.778182 46.778182 0 0 0 0 66.048l4.096 4.096a46.266182 46.266182 0 0 0 65.629091 0l-10.333091 10.379637c18.292364-18.385455 32.768-12.101818 32.768 13.684363v-14.661818c0 25.972364 21.038545 46.638545 47.010909 46.638546h4.608c26.065455 0 47.010909-20.898909 47.010909-46.638546v14.661818c0-26.018909 14.615273-31.883636 32.721455-13.684363l-10.286546-10.379637a46.033455 46.033455 0 0 0 65.629091 0l4.049455-4.096a47.010909 47.010909 0 0 0 0-66.048l10.333091 10.379637c-18.292364-18.385455-12.008727-33.047273 13.591273-33.047273z m-165.376-159.837091a109.847273 109.847273 0 0 1 109.521454 110.219637 109.847273 109.847273 0 0 1-109.521454 110.266182 109.847273 109.847273 0 0 1-109.521455-110.266182 109.847273 109.847273 0 0 1 109.521455-110.219637zM730.205091 398.661818C766.789818 432.407273 791.272727 493.661091 791.272727 563.665455V631.249455C791.272727 697.809455 734.72 756.363636 664.948364 756.363636c-19.037091 0-37.050182-4.608-53.201455-12.613818 13.498182-35.421091 21.410909-77.544727 21.410909-122.693818 0-64.744727-16.151273-123.252364-42.123636-164.770909 40.075636-6.330182 83.735273-22.574545 125.486545-48.686546 4.654545-2.932364 9.216-5.911273 13.684364-8.936727z"  horiz-adv-x="1024" />

    
    <glyph glyph-name="xinzengshangpin" unicode="&#59026;" d="M464.896 152.007111c0 36.750222 7.168 72.476444 21.390222 106.154667 13.767111 32.426667 33.336889 61.553778 58.368 86.584889 25.031111 25.031111 54.158222 44.714667 86.584889 58.368 33.678222 14.222222 69.290667 21.390222 106.154667 21.390222 13.767111 0 27.306667-1.024 40.732444-2.958222V551.936c0 46.08-37.319111 83.399111-83.399111 83.399111H647.054222c-3.413333 56.433778-26.965333 108.999111-67.242666 149.276445C536.120889 828.302222 478.208 852.309333 416.426667 852.309333S296.732444 828.188444 253.155556 784.611556c-40.277333-40.277333-63.829333-92.842667-67.242667-149.276445h-47.672889c-46.08 0-83.399111-37.319111-83.399111-83.399111V62.008889c0-46.08 37.319111-83.399111 83.399111-83.399111h388.892444c-16.839111 20.366222-30.492444 42.894222-40.732444 67.242666-14.336 33.678222-21.504 69.404444-21.504 106.154667z m200.248889 405.731556c0-20.707556-16.839111-37.546667-37.546667-37.546667s-37.546667 16.839111-37.546666 37.546667c0 13.425778 7.054222 25.144889 17.635555 31.857777v-22.641777c0-11.036444 8.874667-19.911111 19.911111-19.911111s19.911111 8.874667 19.911111 19.911111v22.641777c10.581333-6.599111 17.635556-18.432 17.635556-31.857777zM416.540444 812.487111c100.693333 0 183.523556-78.279111 190.691556-177.152h-381.496889c7.281778 98.872889 89.998222 177.152 190.805333 177.152z m-211.171555-292.295111c-20.707556 0-37.546667 16.839111-37.546667 37.546667 0 13.425778 7.054222 25.144889 17.635556 31.857777v-22.641777c0-11.036444 8.874667-19.911111 19.911111-19.911111s19.911111 8.874667 19.911111 19.911111v22.641777c10.581333-6.599111 17.635556-18.432 17.635556-31.857777 0-20.707556-16.839111-37.546667-37.546667-37.546667z m532.024889-135.395556c-128.568889 0-232.789333-104.220444-232.789334-232.789333s104.220444-232.789333 232.789334-232.789333 232.789333 104.220444 232.789333 232.789333-104.220444 232.789333-232.789333 232.789333z m164.295111-234.382222c0-11.036444-8.874667-19.911111-19.911111-19.911111H758.897778v-122.88c0-11.036444-8.874667-19.911111-19.911111-19.911111h-3.185778c-11.036444 0-19.911111 8.874667-19.911111 19.911111v122.88h-122.88c-11.036444 0-19.911111 8.874667-19.911111 19.911111v3.185778c0 11.036444 8.874667 19.911111 19.911111 19.911111h122.88V296.391111c0 11.036444 8.874667 19.911111 19.911111 19.911111h3.185778c11.036444 0 19.911111-8.874667 19.911111-19.911111v-122.88h122.88c11.036444 0 19.911111-8.874667 19.911111-19.911111v-3.185778z"  horiz-adv-x="1024" />

    
    <glyph glyph-name="chanchengpinrukuzhuancang" unicode="&#58905;" d="M545.321074 896l545.321075-408.406226v-166.574604l-545.321075 408.590829L0 321.080704V487.655309zM136.54564 309.573704l409.575386 316.965566 409.575386-317.027101v-437.512169H136.54564V309.635238z m629.74677-125.284779v10.645514c0 118.639024-99.009435 214.81786-221.03287 214.81786a224.601887 224.601887 0 0 1-115.931495-31.936543 24.613905 24.613905 0 0 1-13.476113-21.844841 25.167718 25.167718 0 0 1 25.536927-24.613905 25.906135 25.906135 0 0 1 14.583739 4.492038 173.035755 173.035755 0 0 0 89.225407 24.613905c93.963584 0 170.143621-73.841716 170.143621-165.34391 0-3.569016 0-7.199567-0.430743-10.645514h-49.227811l76.241572-106.209002 76.056968 105.962863h-51.689202z m-116.91605-125.961661a25.96767 25.96767 0 0 1-14.706809-4.492038 172.851151 172.851151 0 0 0-89.225407-24.613905c-93.963584 0-170.020552 73.841716-170.020552 165.282375 0 3.630551 0 7.138033 0.307674 10.707049h49.227811L349.148248 311.173607l-76.118502-105.901328h51.689201v-10.707049c0-118.577489 99.009435-214.756325 220.971336-214.756324a224.540352 224.540352 0 0 1 115.993029 31.936542 24.613905 24.613905 0 0 1 13.476114 21.844841 25.229253 25.229253 0 0 1-25.536927 24.613905z m0 0"  horiz-adv-x="1090" />

    
    <glyph glyph-name="jigouduan-shouyeqietu" unicode="&#58885;" d="M738.111117 447.99992c-92.479884 1.023999-178.303777-47.551941-224.831719-127.167841s-46.527942-178.047777 0-257.663678S645.695233-65.02343900000005 738.111117-63.99944000000005c140.735824 1.599998 254.015682 115.711855 254.015683 255.99968s-113.279858 254.463682-254.015683 255.99968z m102.911871-98.815876l22.719972-22.591972-100.159875-99.839875-22.719971 22.655971 100.159874 99.775876z m-205.887742 0l100.223875-99.775876-22.655972-22.655971-100.287875 99.839875 22.719972 22.591972zM866.494957 192.00023999999996h-96.31988v-63.99992h96.31988v-31.99996h-96.31988V0.0004800000000386717h-64.19192v95.99988H609.599278V128.00032h96.319879v63.99992H609.599278v31.99996h256.895679v-31.99996zM417.087518 192.00023999999996c0 58.367927 15.93598 112.895859 43.327946 159.9998H176.639819a15.99998 15.99998 0 0 0-16.38398 15.99998v31.93596a15.99998 15.99998 0 0 0 16.06398 16.06398h332.671585a320.639599 320.639599 0 0 0 229.119713 95.93588c33.535958 0 65.855918-5.183994 96.25588-14.655982V831.99944a63.87192 63.87192 0 0 1-64.19192 63.99992H256.511719L101.119913 893.183364A70.399912 70.399912 0 0 1 31.808 822.847451V-63.99944000000005c0-35.327956 28.735964-63.99992 64.19192-63.99992h642.111197a320.447599 320.447599 0 0 0-321.023599 319.9996zM160.255839 591.99974a15.99998 15.99998 0 0 0 16.06398 15.99998h513.663358a15.99998 15.99998 0 0 0 15.99998-15.99998v-31.93596a15.99998 15.99998 0 0 0-15.99998-16.06398H176.319819a15.93598 15.93598 0 0 0-15.99998 15.99998v31.99996z m160.5118-416.06348a15.99998 15.99998 0 0 0-4.671994-11.327986 16.38398 16.38398 0 0 0-11.391986-4.607994H176.319819a15.99998 15.99998 0 0 0-16.06398 15.99998v31.99996a15.99998 15.99998 0 0 0 16.06398 15.99998h128.44784a15.99998 15.99998 0 0 0 15.99998-15.99998v-32.06396z m0 0"  horiz-adv-x="1024" />

    
    <glyph glyph-name="cangkuguanli" unicode="&#58969;" d="M907.589766 466.125028c-54.674082 32.804449-251.500779 149.442492-331.689432 200.471635-21.869633 14.579755-43.739266 18.224694-61.96396 3.644939-10.934816-7.289878-386.363515-236.921023-386.363515-236.921024S94.768409 418.740823 94.768409 353.131924L116.638042-73.325918c0-29.159511 25.514572-54.674082 58.319021-54.674082h732.632703c29.159511 0 54.674082 25.514572 58.319022 54.674082l18.224694 422.812904v29.15951s0 40.094327-76.543716 87.478532z m-127.572858-455.617353H298.884983c-14.579755 0-25.514572 10.934816-25.514571 25.514572 0 14.579755 10.934816 25.514572 25.514571 25.514572h477.486986c14.579755 0 25.514572-10.934816 25.514572-25.514572 0-14.579755-10.934816-25.514572-21.869633-25.514572z m0 131.217798H298.884983c-14.579755 0-25.514572 10.934816-25.514571 25.514571 0 14.579755 10.934816 25.514572 25.514571 25.514572h477.486986c14.579755 0 25.514572-10.934816 25.514572-25.514572 0-14.579755-10.934816-25.514572-21.869633-25.514571z m0 134.862736H298.884983c-14.579755 0-25.514572 10.934816-25.514571 25.514572 0 14.579755 10.934816 25.514572 25.514571 25.514572h477.486986c14.579755 0 25.514572-10.934816 25.514572-25.514572 0-14.579755-10.934816-25.514572-21.869633-25.514572zM1071.612013 546.313682L575.900334 885.292992c-18.224694 10.934816-43.739266 14.579755-61.96396 0L25.514572 560.893437C0 542.668743-7.289878 509.864294 10.934816 484.349722c18.224694-25.514572 51.029143-32.804449 76.543716-14.579755L546.740823 772.299889 1009.648053 455.190211c10.934816-7.289878 21.869633-10.934816 29.159511-10.934816 18.224694 0 32.804449 7.289878 43.739266 21.869633 18.224694 29.159511 10.934816 61.96396-10.934817 80.188654z"  horiz-adv-x="1093" />

    
    <glyph glyph-name="icon-caigoudd" unicode="&#58912;" d="M509.10819628 97.37213085999997c0-44.01147568 14.51803271-84.6590168 39.05409903-117.51639346H208.36065605c-31.94262334 0-57.83606543 25.67213086-57.83606631 57.33442617V696.41803271c0 31.66229531 25.89344297 57.33442617 57.83606631 57.33442617h127.23934395a34.55409815 34.55409815 0 0 0 34.70163925 34.39180372h41.59180372a36.73770469 36.73770469 0 0 0-1.10655791 8.60163925C410.78688506 817.31311494 427.62131123 834 448.38032803 834h104.10491777c20.7590168 0 37.59344297-16.68688506 37.59344297-37.25409815 0-2.98032802-0.44262334-5.82786914-1.10655791-8.60163925h41.59180372a34.55409815 34.55409815 0 0 0 34.70163925-34.39180372h121.4557374c31.94262334 0 57.83606543-25.67213086 57.83606543-57.33442617v-454.30819628a199.7557374 199.7557374 0 0 1-135.91475332 53.0409832c-110.19836075 0-199.53442617-88.55409815-199.53442705-197.77868877z m-173.50819628 88.86393456h115.67213086a34.53934395 34.53934395 0 0 1 34.70163926 34.39180372 34.55409815 34.55409815 0 0 1-34.70163926 34.39180283h-115.67213086a34.55409815 34.55409815 0 0 1-34.70163925-34.39180283 34.53934395 34.53934395 0 0 1 34.70163925-34.39180372z m0 137.5672131h225.56065606a34.55409815 34.55409815 0 0 1 34.70163925 34.40655791 34.55409815 34.55409815 0 0 1-34.70163926 34.39180282H335.6a34.55409815 34.55409815 0 0 1-34.70163925-34.39180282 34.55409815 34.55409815 0 0 1 34.70163925-34.40655791z m318.09836075 206.38032802h-318.09836075a34.55409815 34.55409815 0 0 1-34.70163925-34.40655703 34.55409815 34.55409815 0 0 1 34.70163925-34.39180371h318.09836075a34.55409815 34.55409815 0 0 1 34.70163925 34.39180371 34.55409815 34.55409815 0 0 1-34.70163925 34.40655703z m57.83606542-275.16393457C800.97377012 255.01967197 873.47541026 183.15245888000004 873.47541026 94.50983642999995 873.47541026 5.86721308999995 800.97377012-66 711.53442617-66c-89.43934394 0-161.9409832 71.86721309-161.9409832 160.50983643 0 88.64262334 72.50163926 160.50983643 161.9409832 160.50983554z m-28.91803271-240.77213085v40.13114765h127.23934394v85.98688506h-127.23934394v40.13114765l-80.97049161-74.52295136 80.97049161-91.726229z"  horiz-adv-x="1024" />

    
    <glyph glyph-name="yuangongguanli" unicode="&#60223;" d="M633.8 749.9c15-3.3 27.3-11.3 37.1-24s15.3-28.6 16.6-47.5c0-5.9 0.3-15 1-27.4 0.7-12.4 1-25.5 1-39.2 0-13.7-0.5-26.1-1.5-37.2-1-11.1-2.8-18-5.4-20.6-3.9-4.6-7.6-6.7-11.2-6.4-3.6 0.3-5.4-1.5-5.4-5.4 0-2-0.5-8.8-1.5-20.6s-3.7-28.1-8.3-49c-2.6-11.1-6.3-21.1-11.2-29.9-4.9-8.8-9.9-16.8-15.1-24-6.5-7.8-13-15-19.5-21.6-0.7-8.5-1-16.7-1-24.5V352c0-7.2 0.3-12.7 1-16.7 0.7-7.8 2.6-13.4 5.9-16.7 3.3-3.3 9.8-6.2 19.5-8.8 3.3-1.3 9.1-3.3 17.6-5.9 8.5-2.6 18.5-6 30.3-10.3 11.7-4.2 23.9-8.7 36.6-13.2 12.7-4.6 24.9-9 36.6-13.2 11.7-4.2 22.1-8.2 31.2-11.8 9.1-3.6 15.9-6.4 20.5-8.3 13-6.5 21.6-13.4 25.9-20.6 4.2-7.2 8-16.3 11.2-27.4 1.3-5.9 3.1-16.7 5.4-32.3 2.3-15.7 4.7-32 7.3-49 2.6-17 4.7-33 6.3-48 1.6-15 2.8-24.5 3.4-28.4 0.7-8.5-0.8-15.7-4.4-21.6-3.6-5.9-11.9-10.4-24.9-13.7-11.1-2.6-27.2-5.4-48.3-8.3-21.1-2.9-45.7-5.7-73.7-8.3-28-2.6-58.7-4.7-92.2-6.4-33.5-1.6-68.8-2.5-105.9-2.5-37.1 0-72.5 0.7-106.4 2-33.8 1.3-64.9 3.1-93.2 5.4-28.3 2.3-53.3 4.9-75.1 7.8-21.8 2.9-38.9 6-51.2 9.3-2.6 0.7-5.9 2-9.8 3.9-3.9 2-7.6 4.4-11.2 7.4-3.6 2.9-6.3 6.5-8.3 10.8-2 4.2-2.6 9-2 14.2 0.7 4.6 2.4 14.9 5.4 30.9 2.9 16 6.3 33.1 10.2 51.4 3.9 18.3 7.5 35.4 10.7 51.4 3.3 16 5.5 26 6.8 29.9 2.6 7.8 6.3 16 11.2 24.5 4.9 8.5 13.2 17.3 24.9 26.4 5.9 4.6 16.6 9.5 32.2 14.7 15.6 5.2 31.9 10.1 48.8 14.7s32.9 8.5 47.8 11.8c15 3.3 24.7 5.6 29.3 6.9 9.8 2 18.4 4.4 25.9 7.3 7.5 2.9 11.2 7 11.2 12.2v56.8c-7.2 5.9-14 12.4-20.5 19.6-5.9 5.9-11.7 12.9-17.6 21.1-5.9 8.2-11.1 16.8-15.6 26-9.1 17.6-15 33.8-17.6 48.5-2.6 14.7-4.2 23.4-4.9 26-0.7 2.6-3.1 4.7-7.3 6.4-4.2 1.6-7.3 5.1-9.3 10.3-5.2 11.1-7.6 22.9-7.3 35.3 0.3 12.4 1.1 30 2.4 52.9 1.9 22.9 5.7 44.7 11.2 65.6 5.5 20.9 17.7 40.2 36.6 57.8 9.8 8.5 22.8 15.5 39 21.1 16.3 5.6 32.9 9.6 49.8 12.2 16.9 2.6 33 3.9 48.3 3.9 15.3 0 26.8-1 34.6-2.9 8.5-2.6 15.3-5.4 20.5-8.3 5.2-2.9 9.3-5.7 12.2-8.3 2.9-2.6 5.4-5.1 7.3-7.3 2-2.3 3.9-4.1 5.9-5.4 3.3-2.6 7.5-3.4 12.7-2.4 5.4 1 14.5 0.1 27.5-2.5zM544 213l26.3-101.9 42.9 115.6-41 29.4L544 213z m-70.2 45.1l-39-31.4 43.9-115.6L502.1 214l-28.3 44.1z m347.4 383.1c9.1-1.3 16.4-5.9 22-13.7 5.5-7.8 8.6-17.3 9.3-28.4 0-3.3 0.3-8.7 1-16.2s1-15.2 1-23c0-7.8-0.3-15.2-1-22-0.7-6.9-1.6-10.9-2.9-12.2-2.6-2.6-5-3.8-7.3-3.4-2.3 0.3-3.4-0.8-3.4-3.4 0-1.3-0.2-5.4-0.5-12.2-0.3-6.9-2.1-16.8-5.4-29.9-1.3-6.5-3.3-12.4-5.9-17.6-2.6-5.2-5.5-9.8-8.8-13.7-3.3-4.6-7.2-8.8-11.7-12.7-0.7-5.2-1-10.1-1-14.7v-22.5c0.7-4.6 1.9-7.8 3.9-9.8 1.9-2 5.9-3.6 11.7-4.9 2.6-0.7 8.8-2.6 18.5-5.9 9.8-3.3 20.3-7 31.7-11.3 11.4-4.2 22-8.2 31.7-11.8 9.8-3.6 16.6-6.4 20.5-8.3 7.8-3.9 13.2-8 16.1-12.2 2.9-4.2 5-10 6.3-17.1 0.7-3.3 1.6-9.5 2.9-18.6 1.3-9.1 2.6-18.9 3.9-29.4 1.3-10.4 2.6-19.9 3.9-28.4 1.3-8.5 1.9-14 1.9-16.7 0.7-5.2-0.2-9.6-2.4-13.2-2.3-3.6-7.3-6-15.1-7.3-6.5-1.3-15-2.9-25.4-4.9-10.4-2-24.1-3.6-41-4.9-1.3 7.8-3.3 15.3-5.9 22.5-1.9 6.5-4.2 13.4-6.8 20.6-2.6 7.2-5.9 13.4-9.8 18.6-7.2 9.8-14.6 17.6-22.4 23.5-7.8 5.9-15.6 10.8-23.4 14.7-7.8 3.9-15.6 7-23.4 9.3-7.8 2.3-15.6 4.7-23.4 7.3-33.2 11.8-59.9 19.9-80 24.5-20.2 4.6-31.6 8.5-34.2 11.8-1.3 2-2.1 4.2-2.4 6.9-0.3 2.6-0.5 5.5-0.5 8.8 0 3.3 0.3 6.9 1 10.8 9.1 2.6 15.9 4.2 20.5 4.9 4.6 0.7 8.1 1.3 10.7 2 5.2 1.3 10.1 2.8 14.6 4.4 4.6 1.6 6.8 4.1 6.8 7.4v34.3l-5.9 2.9c-1.3 0.7-2.6 2.3-3.9 4.9 3.9 8.5 7.8 18.6 11.7 30.4 3.3 10.5 6.7 23.2 10.2 38.2 3.6 15 6.7 33 9.3 53.9 1.9 16.3 3.3 31 3.9 44.1 0.7 13.1 1 24.5 1 34.3v30.4c7.8 1.3 16.1 2 24.9 2 8.8 0 15.8-0.7 21-2 11.1-3.3 17.7-6.5 20-9.8 2.3-3.3 4.7-5.9 7.3-7.8 2.6-1.3 5.4-1.8 8.3-1.5 3.1-0.2 8.5-0.7 16.3-2z m-49.8-313.5l6.8-26.5 17.6-5.9 13.7 35.3-20.5 17.6-17.6-20.5z m-50.7 17.6l-16.6-16.7 1-3.9 30.3-8.8 3.9 10.8-18.6 18.6zM287.4 662.7c-10.4 1.3-20.8 1.6-31.2 1-9.1-0.7-19-2.3-29.8-4.9-10.7-2.6-20.7-7.2-29.8-13.7-7.8-5.2-14-11.4-18.5-18.6-4.6-7.2-8-14.5-10.2-22-2.3-7.5-3.7-14.5-4.4-21.1-0.7-6.5-1-11.8-1-15.7-0.7-8.5-1.3-16.2-1.9-23-0.7-6.9-0.3-12.9 1-18.1 1.3-5.2 2.3-8.8 2.9-10.8 0.7-2 2-3.6 3.9-4.9 2-1.3 3.6-2.1 4.9-2.4 1.3-0.3 2.6-4.7 3.9-13.2 0.6-8.5 2.8-16.8 6.3-25 3.6-8.2 7.3-14.9 11.2-20.1 1.9-3.3 4.4-6.4 7.3-9.3 2.9-2.9 5.7-6 8.3-9.3 2.6-3.3 5.9-6.5 9.8-9.8v-28.4c-0.7-3.9-2.1-7.2-4.4-9.8-2.3-2.6-6.7-4.6-13.2-5.9-3.3-0.7-8.6-2-16.1-3.9-7.5-2-15.6-4.1-24.4-6.4-8.8-2.3-17.6-4.7-26.3-7.3-8.8-2.6-15.8-4.9-21-6.9-18.9-9.1-30.3-24.8-34.2-47-2.6-10.5-5.5-23.5-8.8-39.2-3.3-15.7-5.5-26.8-6.8-33.3-1.3-6.5-1.1-13.4 0.5-20.6 1.6-7.2 7-11.8 16.1-13.7 4.6-1.3 10.2-2.3 17.1-2.9 6.8-0.7 13.5-1.6 20-2.9 7.2-1.3 14.6-2.3 22.4-2.9 1.3 7.8 3.3 15.7 5.9 23.5 2 7.2 4.7 14.4 8.3 21.6 3.6 7.2 8 14 13.2 20.6 5.2 5.9 11.6 11.6 19 17.1 7.5 5.6 14.8 10.9 22 16.2 7.8 5.9 16.3 11.4 25.4 16.7l-9.8 24.5 21.5 16.7 22.4-25.5 11.7 2.9c1.3 0 3.3 0.7 5.9 2 1.3 0.7 2.6 1 3.9 1l18.5 21.6 16.6-13.7c3.3 0.7 6.2 1.3 8.8 2 2.6 0.7 5.5 1.3 8.8 2l9.8 2c7.2 1.3 13.2 2.6 18.1 3.9 4.9 1.3 7.6 4.6 8.3 9.8 0 2.6 0.2 4.7 0.5 6.4 0.3 1.6 0.5 3.1 0.5 4.4v2.9c-5.9 2-11.4 3.9-16.6 5.9l-13.7 3.9c-4.6 1.3-8.1 2.6-10.7 3.9-5.2 2-8.1 4.7-8.8 8.3-0.7 3.6-1 8.3-1 14.2v9.8c0 3.3 0.3 6.5 1 9.8 0 3.3 0.3 7.2 1 11.8-5.2 7.8-10.4 16.3-15.6 25.5-4.6 7.8-8.9 16.8-13.2 26.9-4.2 10.1-7.6 20.7-10.2 31.8-3.3 15-5.5 31-6.8 48-1.3 17-1.6 32.3-1 46-0.3 16 0.7 32 2.7 47.6z m0 0"  horiz-adv-x="1024" />

    
    <glyph glyph-name="kehuwanglai" unicode="&#58948;" d="M584.8576 267.52a349.696 349.696 0 0 0-39.0144 14.08 71.68 71.68 0 0 0-26.6752 57.7024 109.2096 109.2096 0 0 0 30.72 62.3104 265.5232 265.5232 0 0 1 47.2064 159.232c0 129.2288-81.92 233.1136-182.6816 233.1136s-182.6816-106.1888-182.6816-235.52a280.2688 280.2688 0 0 1 47.2064-159.232 77.1072 77.1072 0 0 0 4.096-120.0128v-2.304a6.9632 6.9632 0 0 1-4.096-2.304 57.088 57.088 0 0 0-32.8704-11.5712 384 384 0 0 1-182.6816-133.8368h2.048A102.7584 102.7584 0 0 1 143.36-25.6h542.1056a96.4096 96.4096 0 0 1 94.4128 101.5296 128.3072 128.3072 0 0 1-18.4832 62.3104 354.3552 354.3552 0 0 1-176.5376 129.2288z m367.4112-101.5296a317.44 317.44 0 0 1-156.0064 113.1008 241.3568 241.3568 0 0 0-34.9184 11.52 64.1024 64.1024 0 0 0-22.5792 50.7904 84.3264 84.3264 0 0 0 26.6752 53.0944 238.7968 238.7968 0 0 1 43.1104 140.7488c0 113.1008-71.68 207.7184-162.1504 207.7184a119.0912 119.0912 0 0 1-40.96-6.912 338.4832 338.4832 0 0 0 47.2064-177.7152 355.6352 355.6352 0 0 0-61.44-198.4512l-4.096-4.6592v-2.304a55.3472 55.3472 0 0 1-12.288-18.432c0-2.304 0-2.304 2.048-2.304a35.3792 35.3792 0 0 1 16.4352-4.6592h2.048l8.192-4.608a420.9664 420.9664 0 0 0 203.2128-150.016 179.2 179.2 0 0 0 32.8192-101.5296 164.5568 164.5568 0 0 0-10.24-55.3984h59.5456A86.0672 86.0672 0 0 1 972.8 105.984a107.52 107.52 0 0 1-20.48 60.0064z m0 0"  horiz-adv-x="1024" />

    
    <glyph glyph-name="shouhuodan" unicode="&#58880;" d="M760.752 671.312h-130.432c-3.52-21.792-20.784-37.76-41.92-37.76h-154.224c-21.12 0-38.384 15.968-41.904 37.76h-129.024c-12.688 0-23.248-11.68-23.248-25.68v-587.952c0-14.016 10.56-25.68 23.248-25.68h497.504C773.44 32 784 43.68 784 57.68V645.632c0 14.4-10.208 25.68-23.248 25.68zM392.368 484.512l-47.984-51.152a12.96 12.96 0 0 0-9.504-4.288 12.96 12.96 0 0 0-9.504 4.288l-17.968 20.656c-5.28 5.84-5.28 15.2 0 20.656 5.28 5.856 13.744 5.856 18.672 0l9.152-10.128 38.48 40.64c5.28 5.84 13.728 5.84 18.656 0 5.28-5.472 5.28-14.816 0-20.672z m0-129.376l-47.984-51.152a12.96 12.96 0 0 0-9.504-4.288 12.96 12.96 0 0 0-9.504 4.288l-17.968 20.656c-5.28 5.84-5.28 15.2 0 20.656 5.28 5.856 13.744 5.856 18.672 0l9.152-10.128 38.48 40.64c5.28 5.84 13.728 5.84 18.656 0 5.28-5.472 5.28-14.832 0-20.672z m209.776-174.88h-159.52c-7.392 0-13.376 7.968-13.376 17.792 0 9.84 5.984 17.792 13.376 17.792h159.52c7.392 0 13.376-7.952 13.376-17.792 0-9.824-5.984-17.776-13.376-17.776z m-172.896 147.2c0 9.84 5.984 17.808 13.376 17.808h106.352c7.392 0 13.376-7.968 13.376-17.792 0-9.84-5.984-17.792-13.376-17.792h-106.352c-7.392 0-13.376 7.952-13.376 17.792z m264.912 112.032H441.952c-7.024 0-12.704 7.968-12.704 17.792 0 9.824 5.68 17.792 12.704 17.792h252.544c7.024 0 12.688-7.968 12.688-17.792 0-9.824-6-17.792-13.024-17.792z m-109.168 262.336c13.44 0 23.92-11.744 23.92-26.448 0-14.688-10.816-26.448-24.24-26.448h-143.52c-13.76 0-24.24 11.76-24.24 26.448 0 14.704 10.816 26.448 24.256 26.448h7.856v8.832c0 14.32 10.48 25.344 24.24 25.344h79.616c13.76 0 24.256-11.024 24.256-25.344v-8.832h7.856z"  horiz-adv-x="1024" />

    
    <glyph glyph-name="xiaofeidan" unicode="&#58902;" d="M724.713 590.097a258.87 258.87 0 0 1-157.637-53.233H172.499a32.38 32.38 0 0 1-32.206-32.27v-4.297a32.365 32.365 0 0 1 32.206-32.27h331.798a259.393 259.393 0 0 1-39.865-135.008H172.499a32.38 32.38 0 0 1-32.206-32.27v-4.297a32.396 32.396 0 0 1 32.206-32.285h300.083A261.122 261.122 0 0 1 585.47 108.765H97.843A91.972 91.972 0 0 0 6.188 200.58V804.186A91.972 91.972 0 0 0 97.843 896H893.26a91.972 91.972 0 0 0 91.687-91.814V338.87c-5.074 139.544-119.596 251.227-260.17 251.227zM850.78 708.44a32.365 32.365 0 0 1-32.222 32.27H172.499a32.365 32.365 0 0 1-32.206-32.27v-4.297a32.38 32.38 0 0 1 32.206-32.27H818.62a32.38 32.38 0 0 1 32.222 32.27zM724.713 537.181c114.648-0.031 207.73-93.098 207.73-208S839.362 121.15 724.714 121.15s-207.54 93.145-207.54 208.031 92.908 207.969 207.54 207.969z m-66.886-271.16h58.403v-57.53c0-8.023 5.994-14.54 13.367-14.54s13.384 6.517 13.384 14.54v57.515h57.958c7.39 0 13.384 6.517 13.384 14.525s-5.994 14.541-13.384 14.541h-57.895v41.404h58.292c7.373 0 13.383 6.533 13.383 14.54s-6.01 14.526-13.383 14.526h-53.25l53.71 58.387a15.366 15.366 0 0 1 0 20.535 12.607 12.607 0 0 1-18.902 0l-53.82-58.498-54.311 59.053a12.686 12.686 0 0 1-18.886 0 15.413 15.413 0 0 1 0-20.615l54.2-58.91h-51.774c-7.374 0-13.384-6.517-13.384-14.525s6.01-14.54 13.384-14.54h57.99v-41.404h-58.402c-7.39 0-13.368-6.518-13.368-14.541s5.978-14.526 13.368-14.526z m0 0"  horiz-adv-x="1279" />

    
    <glyph glyph-name="fahuodan" unicode="&#58981;" d="M342.016 828.416h389.632v-57.344H342.016z m87.04-732.16c0 180.736 146.944 327.68 327.68 327.68 59.904 0 116.224-16.384 164.864-44.544V675.328H152.576v-702.976H453.12c-15.36 38.4-24.064 79.872-24.064 123.904zM773.12 772.608h176.128v-410.112c18.944-13.312 36.352-28.672 51.712-45.568V798.72c0 14.336-11.264 25.6-25.6 25.6H773.12c-14.336 0-25.6-11.264-25.6-25.6-0.512-14.336 10.752-26.112 25.6-26.112zM466.944-53.76H122.368V772.608h176.128c14.336 0 25.6 11.776 25.6 25.6 0 14.336-11.264 25.6-25.6 25.6H96.768c-14.336 0-25.6-11.264-25.6-25.6v-878.08c0-14.336 11.264-25.6 25.6-25.6h403.456c-12.8 15.872-23.552 33.28-33.28 51.712zM824.32-41.984H701.44C690.176-16.896 665.6 0 637.952 0s-52.736-16.384-63.488-41.984h-19.968c-7.168 0-14.336 3.072-19.456 8.192s-8.192 12.288-8.192 19.456V290.816c0 15.36 12.288 27.648 28.16 27.648h332.8c15.36 0 28.16-12.288 28.16-28.16v-82.944h55.808l55.808-83.456v-138.752a27.533 27.533 0 0 0-27.648-27.648H952.32c-11.264 25.088-35.84 41.984-63.488 41.984-28.672 0-53.76-16.384-64.512-41.472z m91.136 194.048v-83.456h27.648v83.456h-27.648zM610.304 235.52v-111.104h222.208V235.52H610.304zM582.656-69.632c0-19.968 10.752-38.4 27.648-48.128 17.408-9.728 38.4-9.728 55.808 0s27.648 28.16 27.648 48.128-10.752 38.4-27.648 48.128c-17.408 9.728-38.4 9.728-55.808 0-17.408-10.24-27.648-28.672-27.648-48.128zM832.512-69.632c0-19.968 10.752-38.4 27.648-48.128 17.408-9.728 38.4-9.728 55.808 0s27.648 28.16 27.648 48.128-10.752 38.4-27.648 48.128c-17.408 9.728-38.4 9.728-55.808 0-16.896-10.24-27.648-28.672-27.648-48.128zM731.136 890.88h-389.12c-33.792 0-61.44-27.648-61.44-61.44v-56.32c0-33.792 27.648-61.44 61.44-61.44h389.12c33.792 0 61.44 27.648 61.44 61.44V829.44c0 33.792-27.648 61.44-61.44 61.44z m12.288-133.12h-414.72V844.8h414.72v-87.04z"  horiz-adv-x="1027" />

    
    <glyph glyph-name="changshang" unicode="&#58990;" d="M919.1-49.5H106.2c-12.1 4.8-20.5 13.2-25.3 25.3V389c11 24.6 46.1 42.1 69.1 57.3 34.3 22.6 71.5 48.2 107.9 72.5 17.7 11.8 40.7 32.1 62.4 28.7 43.7-6.9 21.5-77.4 27-131.6 28.6-4.5 46 16.5 64.1 28.7 36.9 24.7 72.1 48 111.3 74.2 17.4 11.7 42.8 32.4 64.1 28.7 42.4-7.5 19.4-84.1 25.3-131.6h65.8c1.1-77-2.3-158.5 1.7-232.7 13.2 152.6 28.5 317.8 42.2 479 3.2 37.2 1.9 134.3 28.7 146.7 20.2 9.4 113 7.6 128.2-1.7 18.4-11.2 16.3-55.9 18.6-94.4 12.6-217.9 25.5-424.2 40.5-637.5 3.3-49.2 18.7-118.7-18.7-124.8z m-738.7 398V249h65.8v99.5h-65.8z m166.9 0V249h65.8v99.5h-65.8z m165.3 0V249h65.8v99.5h-65.8zM180.4 183.2v-99.5h65.8v99.5h-65.8z m166.9 0v-99.5h65.8v99.5h-65.8z m165.3 0v-99.5h65.8v99.5h-65.8z"  horiz-adv-x="1024" />

    
    <glyph glyph-name="wanglaimingxibiao" unicode="&#58913;" d="M807.7 132.7c0-44.7-16.8-91.5-44.9-119 28.6-7.1 87.3-22.2 95.7-29.9 18.6-16.9 27.9-59 9.3-84.3 0 0-9.3-8.5-157.9-8.5-148.5 0-159.2 8.5-159.2 8.5-18.7 25.3-9.3 67.4 9.4 84.3 8.8 7.9 66.5 22.6 95.8 29.7-28.2 27.4-45.2 74.4-45.2 119.2 0 68.5 17.9 124 98.5 124 80.6-0.1 98.5-55.6 98.5-124z m-98.3 92.4c-52.7 0-63.3-42-63.3-93.9 0-37.6 15.9-78.8 37.7-98.7v-18.8l-5.9-19.5c-22.4-7-66.8-16.4-78.3-22-15.1-7.3-26.6-38.8-3.9-47.4l112.2 0.3 115-0.3c19.8 7.5 15 40.2 0 47.4-8.8 4.2-53.7 14.7-81.6 22.5l-6.3 19v18.8c21.9 19.9 37.7 61.1 37.7 98.7 0 51.9-10.5 93.9-63.3 93.9zM971.6 26.4c-8.5 7.7-67.1 22.8-95.7 29.9 28.1 27.5 44.9 74.3 44.9 119 0 68.5-17.9 124-98.5 124-35.6 0-58.9-10.8-73.9-28.8 16.4-1.2 29.8-4.9 40.9-10.8 8.6 5.2 19.5 8.1 33.3 8.1 52.7 0 63.3-42 63.3-93.9 0-37.7-15.9-78.8-37.7-98.7v-18.8l6.3-19c27.9-7.8 72.8-18.3 81.6-22.5 15-7.2 19.8-40 0-47.4l-32.7 0.1c2.7-10.5 3.4-22 1.3-32.7 70.7 2.3 76.3 7.3 76.3 7.3 18.5 25.2 9.2 67.4-9.4 84.2zM954.3 825.1c0 36.4-29.8 66.4-66.4 66.4h-752c-36.5 0-66.4-29.8-66.4-66.4V-57c0-36.4 29.8-66.4 66.4-66.4h364.8c-13.3 34.1-6.1 89.4 13.5 107.1 8.3 7.5 50 27.3 84.5 39.5C578.3 51.5 566 86 566 123.3c0 95.1 40.8 173.6 159.7 169.1 25.4 26.1 61.6 40.6 111.3 37.9 44-2.5 86-24.1 117.3-59.3V825.1zM175.2 501.9h190.3v-79.3H175.2v79.3z m191.1-317.7H176v79.3h190.3v-79.3z m0.2 471.4H176.2v79.3h190.3v-79.3z m237.9-233H414.1v79.3h190.3v-79.3z m1 233H415.1v79.3h190.3v-79.3z m239 0H654.1v79.3h190.3v-79.3z"  horiz-adv-x="1024" />

    
    <glyph glyph-name="shengchengpandiandan" unicode="&#58944;" d="M908.032 31.424l-46.56 46.528-1.248 1.28a156.544 156.544 0 0 1 26.08 85.632A155.2 155.2 0 0 1 731.136 320 155.2 155.2 0 0 1 576 164.864a155.2 155.2 0 0 1 155.136-155.168c31.68 0 60.832 9.28 85.664 26.08l1.248-1.28 46.528-46.528c6.208-6.208 14.272-9.28 21.728-9.28a30.08 30.08 0 0 1 21.728 9.28 29.984 29.984 0 0 1 0 43.456zM736 64c-53.12 0-96 42.88-96 96s42.88 96 96 96 96-42.88 96-96-42.88-96-96-96z m-27.744 725.344h-499.2c-56.32 0-102.4-45.6-102.4-101.344v-608c0-55.744 46.08-101.344 102.4-101.344h409.6a220.864 220.864 0 0 0-108.8 190.016c0 122.24 100.48 221.664 224 221.664 26.88 0 53.12-4.448 76.8-13.312V688c0 55.744-46.08 101.344-102.4 101.344zM224 213.344c-17.92 0-32 14.08-32 32s14.08 32 32 32 32-14.08 32-32-14.08-32-32-32z m0 128c-17.92 0-32 14.08-32 32s14.08 32 32 32 32-14.08 32-32-14.08-32-32-32z m173.024-128h-47.392c-16.608 0-29.632 14.08-29.632 32s13.024 32 29.632 32h47.392c16.608 0 29.632-14.08 29.632-32s-13.024-32-29.632-32z m102.976 128h-146.656c-18.688 0-33.344 14.08-33.344 32s14.656 32 33.344 32h146.656c18.656 0 33.344-14.08 33.344-32s-14.688-32-33.344-32z m172.8 128H223.168c-17.472 0-31.2 14.08-31.2 32s13.76 32 31.232 32h449.536c17.504 0 31.232-14.08 31.232-32s-13.76-32-31.232-32z m0 128H223.168c-17.472 0-31.2 14.08-31.2 32s13.76 32 31.232 32h449.536c17.504 0 31.232-14.08 31.232-32s-13.76-32-31.232-32z"  horiz-adv-x="1024" />

    


  </font>
</defs>
</svg>
